<svg xmlns="http://www.w3.org/2000/svg" width="1200" height="600" viewBox="0 0 1200 600">
  <defs>
    <linearGradient id="bg" x1="0" y1="0" x2="1" y2="1">
      <stop offset="0%" stop-color="#0f0a1f" />
      <stop offset="100%" stop-color="#1b1338" />
    </linearGradient>
    <linearGradient id="g" x1="0" y1="0" x2="1" y2="1">
      <stop offset="0%" stop-color="#7c3aed" />
      <stop offset="100%" stop-color="#a78bfa" />
    </linearGradient>
  </defs>
  <rect width="1200" height="600" rx="48" fill="url(#bg)" />
  <g transform="translate(408 108) scale(3)">
    <rect width="128" height="128" rx="20" fill="#0f0a1f" />
    <g transform="translate(14,10)">
      <polygon points="50,0 100,86 0,86" fill="url(#g)" opacity="0.9" />
      <g transform="translate(18,38)">
        <rect x="0" y="0" width="60" height="34" rx="4" fill="#ffffff" />
        <path d="M3,4 h24 a6,6 0 0 1 6,6 v20 h-30 z" fill="#eae7fb" />
        <path d="M57,4 h-24 a6,6 0 0 0 -6,6 v20 h30 z" fill="#eae7fb" />
        <rect x="28" y="8" width="4" height="20" fill="#c4b5fd" />
      </g>
      <circle cx="50" cy="44" r="6" fill="#ffffff" />
    </g>
  </g>
</svg>
