<?xml version="1.0" encoding="UTF-8"?>
<svg width="160" height="240" viewBox="0 0 160 240" xmlns="http://www.w3.org/2000/svg" role="img" aria-label="No cover available">
  <defs>
    <linearGradient id="g" x1="0" y1="0" x2="1" y2="1">
      <stop offset="0%" stop-color="#eef2ff"/>
      <stop offset="100%" stop-color="#e2e8f0"/>
    </linearGradient>
  </defs>
  <rect x="0" y="0" width="160" height="240" rx="12" fill="url(#g)"/>
  <rect x="16" y="16" width="128" height="208" rx="8" fill="#ffffff" stroke="#cbd5e1"/>
  <g fill="#94a3b8">
    <path d="M55 85h50v6H55zM55 102h50v6H55zM55 119h35v6H55z"/>
    <path d="M80 160c-18 0-33 11-33 25v7h66v-7c0-14-15-25-33-25zm0-10a18 18 0 1 0 0-36 18 18 0 0 0 0 36z"/>
  </g>
  <text x="80" y="212" text-anchor="middle" font-family="system-ui, -apple-system, Segoe UI, Roboto, Ubuntu, Cantarell, Noto Sans, Arial, sans-serif" font-size="12" fill="#64748b">No cover</text>
</svg>